#!OML:ASF H:\Pregnant\Project 1\Capture day 1\Session 1\femalepreg.ASF
:FULLY-SPECIFIED
:DEGREES
656
root 6.11634 15.716 25.4309 426.348 -85.2458 -408.76
lowerback -19.4964 2.48166 9.274
upperback -2.17883 1.02139 0.882803
thorax 8.71767 0.720898 -4.04979
lowerneck -6.32089 15.1698 17.7248
upperneck 11.1124 21.3957 -18.7046
head 8.50354 9.94862 -6.38952
rclavicle -3.57812e-015 1.19271e-015
rhumerus -94.9944 49.6691 -115.714
rradius 125.2
rwrist -98.7747
rhand -24.461 -71.4854
rfingers 7.12502
rthumb 2.03218 -258.544
lclavicle -3.57812e-015 1.19271e-015
lhumerus -81.1661 -41.4865 108.632
lradius 102.824
lwrist 84.8369
lhand -53.8527 35.2758
lfingers 7.12502
lthumb -26.2823 -296.525
rfemur -23.7905 17.4398 20.799
rtibia 25.5545
rfoot -14.0745 -25.2483
rtoes -6.84383
lfemur -17.9496 -17.8687 -1.21262
ltibia 1.98785e-015
lfoot 3.21579 16.6857
ltoes -24.5851
657
root 6.12558 15.7145 25.4206 426.669 -85.1991 -409.068
lowerback -19.5108 2.39018 9.19439
upperback -2.1572 0.912674 0.917502
thorax 8.73247 0.667142 -3.99583
lowerneck -6.13327 15.3065 18.0371
upperneck 10.7275 21.5622 -18.8885
head 8.43622 10.0514 -6.47226
rclavicle 1.42628e-014 3.97569e-014
rhumerus -94.8495 50.2788 -115.238
rradius 124.6
rwrist -98.5174
rhand -22.6 -70.268
rfingers 7.12502
rthumb 3.82939 -259.787
lclavicle 1.42628e-014 3.97569e-014
lhumerus -80.1773 -41.1291 107.866
lradius 102.27
lwrist 81.5142
lhand -52.754 33.5209
lfingers 7.12502
lthumb -25.2301 -298.127
rfemur -23.8422 17.5225 20.8613
rtibia 25.5398
rfoot -14.0869 -25.2688
rtoes -6.61632
lfemur -18.0047 -17.8307 -1.09289
ltibia -1.19271e-015
lfoot 3.23037 16.6725
ltoes -24.5976
658
root 6.13468 15.7133 25.4109 426.977 -85.1457 -409.353
lowerback -19.5357 2.338 9.14933
upperback -2.14245 0.849104 0.93236
thorax 8.75276 0.636415 -3.97091
lowerneck -5.98413 15.4168 18.2751
upperneck 10.3711 21.6864 -19.0062
head 8.36021 10.1321 -6.52848
rclavicle -2.85753e-015 -2.74323e-014
rhumerus -94.6145 50.7848 -114.658
rradius 123.931
rwrist -98.13
rhand -20.5447 -69.0491
rfingers 7.12502
rthumb 5.81397 -261.051
lclavicle -2.85753e-015 -2.74323e-014
lhumerus -79.1393 -40.8102 107.064
lradius 101.712
lwrist 78.0492
lhand -51.4991 31.9952
lfingers 7.12502
lthumb -24.0273 -299.489
rfemur -23.8959 17.5999 20.9226
rtibia 25.5097
rfoot -14.0952 -25.2882
rtoes -6.38993
lfemur -18.0733 -17.7937 -0.966642
ltibia 2.70347e-014
lfoot 3.25141 16.6565
ltoes -24.6229
659
root 6.14198 15.7118 25.4045 427.413 -85.0953 -409.795
lowerback -19.5504 2.31329 9.15816
upperback -2.12125 0.812563 0.932573
thorax 8.77951 0.621399 -3.98525
lowerneck -5.84969 15.5164 18.4587
upperneck 10.0334 21.7942 -19.0817
head 8.27831 10.2037 -6.56558
rclavicle 8.4235e-015 1.19271e-015
rhumerus -94.3353 51.2363 -114.026
rradius 123.2
rwrist -97.5947
rhand -18.3011 -67.8399
rfingers 7.12502
rthumb 7.97976 -262.331
lclavicle 8.4235e-015 1.19271e-015
lhumerus -78.0352 -40.4683 106.199
lradius 101.161
lwrist 74.4937
lhand -50.0872 30.6124
lfingers 7.12502
lthumb -22.6728 -300.699
rfemur -23.8999 17.6183 20.9956
rtibia 25.46
rfoot -14.1004 -25.2444
rtoes -6.22325
lfemur -18.0913 -17.7617 -0.86666
ltibia 1.35174e-014
lfoot 3.25373 16.6477
ltoes -24.6056
660
root 6.14801 15.71 25.3999 427.961 -85.0401 -410.373
lowerback -19.5573 2.30727 9.20466
upperback -2.09304 0.794139 0.923939
thorax 8.81288 0.617202 -4.02569
lowerneck -5.73445 15.6072 18.6013
upperneck 9.70984 21.8873 -19.1237
head 8.19262 10.267 -6.58777
rclavicle 4.22417e-016 3.37934e-014
rhumerus -94.0133 51.645 -113.358
rradius 122.412
rwrist -96.8947
rhand -15.8773 -66.6362
rfingers 7.12502
rthumb 10.3186 -263.637
lclavicle 4.22417e-016 3.37934e-014
lhumerus -76.8491 -40.0947 105.256
lradius 100.623
lwrist 70.9173
lhand -48.5606 29.2623
lfingers 7.12502
lthumb -21.207 -301.878
rfemur -23.862 17.6126 21.0848
rtibia 25.3886
rfoot -14.09 -25.1767
rtoes -6.12731
lfemur -18.0722 -17.7332 -0.776382
ltibia 1.78906e-014
lfoot 3.24507 16.643
ltoes -24.5693
661
root 6.1531 15.7081 25.3973 428.575 -84.981 -411.041
lowerback -19.55 2.32063 9.28861
upperback -2.05775 0.795933 0.903337
thorax 8.84988 0.624863 -4.09501
lowerneck -5.65282 15.6919 18.7664
upperneck 9.41994 21.9707 -19.17
head 8.12549 10.3229 -6.61398
rclavicle 4.96962e-017 0
rhumerus -93.6563 52.0022 -112.667
rradius 121.577
rwrist -96.004
rhand -13.3203 -65.4658
rfingers 7.12502
rthumb 12.7844 -264.946
lclavicle 4.96962e-017 0
lhumerus -75.5816 -39.6928 104.238
lradius 100.113
lwrist 67.4142
lhand -46.9441 27.8938
lfingers 7.12502
lthumb -19.6535 -303.08
rfemur -23.7817 17.5783 21.1878
rtibia 25.2987
rfoot -14.0737 -25.079
rtoes -6.07134
lfemur -18.0166 -17.7114 -0.698662
ltibia 1.78906e-014
lfoot 3.22395 16.6436
ltoes -24.5035
